ffmpeg started on 2026-04-01 at 12:23:19
Report written to "D:\Convert\FFMetrics\reports\ssim_report-6.txt"
Log level: 32
Command line:
ffmpeg -hide_banner -nostdin -r 24000/1001 -i "F:\\Convert\\files\\[DC] Make Heroine ga Oosugiru - 07_Telegram_HEVC(285).mkv" -r 24000/1001 -i "F:\\Convert\\files\\[DC] Make Heroine ga Oosugiru - 07_Telegram.mp4" -lavfi "[0:v]settb=AVTB,setpts=PTS-STARTPTS,format=pix_fmts=yuv420p10le,fps=24000/1001,scale=1920:1080:flags=lanczos:param0=3:out_range=limited:out_color_matrix=bt709:out_chroma_loc=left,setsar=1/1,setdar=(1920/1080)*(1/1),colorspace=format=yuv420p10:range=tv:primaries=bt709:trc=bt709:space=bt709:fast=0[main];[1:v]settb=AVTB,setpts=PTS-STARTPTS,format=pix_fmts=yuv420p,fps=24000/1001,scale=1920:1080:flags=lanczos:param0=3:out_range=limited:out_color_matrix=bt709:out_chroma_loc=left,setsar=1/1,setdar=(1920/1080)*(1/1),colorspace=format=yuv420p:range=tv:primaries=bt709:trc=bt709:space=bt709:fast=0[ref];[main][ref]ssim=eof_action=endall:stats_file='D\\:/Convert/FFMetrics/logs/ssim_logfile-6.txt'" -f null -
Input #0, matroska,webm, from 'F:\Convert\files\[DC] Make Heroine ga Oosugiru - 07_Telegram_HEVC(285).mkv':
  Metadata:
    COMPATIBLE_BRANDS: isomiso2avc1mp41
    MAJOR_BRAND     : isom
    MINOR_VERSION   : 512
    ENCODER         : Lavf61.7.100
  Duration: 00:24:06.79, start: -0.021000, bitrate: 934 kb/s
  Stream #0:0: Video: hevc (Main 10), yuv420p10le(tv, bt709, progressive), 1920x1080 [SAR 1:1 DAR 16:9], 23.98 fps, 23.98 tbr, 1k tbn (default)
      Metadata:
        HANDLER_NAME    : VideoHandler
        VENDOR_ID       : [0][0][0][0]
        ENCODER         : Lavc61.19.100 libx265
        BPS             : 737082
        DURATION        : 00:24:06.569708333
        NUMBER_OF_FRAMES: 34683
        NUMBER_OF_BYTES : 133280171
        _STATISTICS_WRITING_APP: mkvpropedit v94.0 ('Initiate') 64-bit
        _STATISTICS_WRITING_DATE_UTC: 2026-03-30 15:33:49
        _STATISTICS_TAGS: BPS DURATION NUMBER_OF_FRAMES NUMBER_OF_BYTES
  Stream #0:1: Audio: aac (LC), 48000 Hz, stereo, fltp (default)
      Metadata:
        HANDLER_NAME    : SoundHandler
        VENDOR_ID       : [0][0][0][0]
        ENCODER         : Lavc61.19.100 aac
        BPS             : 193194
        DURATION        : 00:24:06.784000000
        NUMBER_OF_FRAMES: 67819
        NUMBER_OF_BYTES : 34938755
        _STATISTICS_WRITING_APP: mkvpropedit v94.0 ('Initiate') 64-bit
        _STATISTICS_WRITING_DATE_UTC: 2026-03-30 15:33:49
        _STATISTICS_TAGS: BPS DURATION NUMBER_OF_FRAMES NUMBER_OF_BYTES
Input #1, mov,mp4,m4a,3gp,3g2,mj2, from 'F:\Convert\files\[DC] Make Heroine ga Oosugiru - 07_Telegram.mp4':
  Metadata:
    major_brand     : isom
    minor_version   : 512
    compatible_brands: isomiso2avc1mp41
    encoder         : Lavf60.16.100
  Duration: 00:24:06.74, start: 0.000000, bitrate: 3764 kb/s
  Stream #1:0[0x1](und): Video: h264 (High) (avc1 / 0x31637661), yuv420p(tv, bt709, progressive), 1920x1080 [SAR 1:1 DAR 16:9], 3616 kb/s, 23.98 fps, 23.98 tbr, 24k tbn (default)
      Metadata:
        handler_name    : VideoHandler
        vendor_id       : [0][0][0][0]
        encoder         : Lavc60.31.102 h264_qsv
  Stream #1:1[0x2](und): Audio: aac (HE-AACv2) (mp4a / 0x6134706D), 48000 Hz, stereo, fltp, 144 kb/s (default)
      Metadata:
        handler_name    : SoundHandler
        vendor_id       : [0][0][0][0]
Stream mapping:
  Stream #0:0 (hevc) -> settb:default
  Stream #1:0 (h264) -> settb:default
  ssim:default -> Stream #0:0 (wrapped_avframe)
  Stream #0:1 -> #0:1 (aac (native) -> pcm_s16le (native))
Output #0, null, to 'pipe:':
  Metadata:
    COMPATIBLE_BRANDS: isomiso2avc1mp41
    MAJOR_BRAND     : isom
    MINOR_VERSION   : 512
    encoder         : Lavf61.7.100
  Stream #0:0: Video: wrapped_avframe, yuv420p10le(tv, bt709, progressive), 1920x1080 [SAR 1:1 DAR 16:9], q=2-31, 200 kb/s, 23.98 fps, 23.98 tbn
      Metadata:
        encoder         : Lavc61.19.100 wrapped_avframe
  Stream #0:1: Audio: pcm_s16le, 48000 Hz, stereo, s16, 1536 kb/s (default)
      Metadata:
        HANDLER_NAME    : SoundHandler
        VENDOR_ID       : [0][0][0][0]
        _STATISTICS_TAGS: BPS DURATION NUMBER_OF_FRAMES NUMBER_OF_BYTES
        BPS             : 193194
        DURATION        : 00:24:06.784000000
        NUMBER_OF_FRAMES: 67819
        NUMBER_OF_BYTES : 34938755
        _STATISTICS_WRITING_APP: mkvpropedit v94.0 ('Initiate') 64-bit
        _STATISTICS_WRITING_DATE_UTC: 2026-03-30 15:33:49
        encoder         : Lavc61.19.100 pcm_s16le
frame=  123 fps=0.0 q=-0.0 size=N/A time=00:00:05.13 bitrate=N/A speed=  10x    frame=  291 fps=284 q=-0.0 size=N/A time=00:00:12.13 bitrate=N/A speed=11.9x    frame=  467 fps=304 q=-0.0 size=N/A time=00:00:19.47 bitrate=N/A speed=12.7x    frame=  650 fps=315 q=-0.0 size=N/A time=00:00:27.11 bitrate=N/A speed=13.1x    frame=  819 fps=318 q=-0.0 size=N/A time=00:00:34.15 bitrate=N/A speed=13.3x    frame=  964 fps=313 q=-0.0 size=N/A time=00:00:40.20 bitrate=N/A speed=  13x    frame= 1110 fps=309 q=-0.0 size=N/A time=00:00:46.29 bitrate=N/A speed=12.9x    frame= 1271 fps=308 q=-0.0 size=N/A time=00:00:53.01 bitrate=N/A speed=12.9x    frame= 1426 fps=308 q=-0.0 size=N/A time=00:00:59.47 bitrate=N/A speed=12.8x    frame= 1554 fps=302 q=-0.0 size=N/A time=00:01:04.81 bitrate=N/A speed=12.6x    frame= 1701 fps=300 q=-0.0 size=N/A time=00:01:10.94 bitrate=N/A speed=12.5x    frame= 1862 fps=301 q=-0.0 size=N/A time=00:01:17.66 bitrate=N/A speed=12.6x    frame= 2029 fps=303 q=-0.0 size=N/A time=00:01:24.62 bitrate=N/A speed=12.6x    frame= 2124 fps=295 q=-0.0 size=N/A time=00:01:28.58 bitrate=N/A speed=12.3x    frame= 2281 fps=295 q=-0.0 size=N/A time=00:01:35.13 bitrate=N/A speed=12.3x    frame= 2428 fps=294 q=-0.0 size=N/A time=00:01:41.26 bitrate=N/A speed=12.3x    frame= 2554 fps=292 q=-0.0 size=N/A time=00:01:46.52 bitrate=N/A speed=12.2x    frame= 2717 fps=293 q=-0.0 size=N/A time=00:01:53.32 bitrate=N/A speed=12.2x    frame= 2892 fps=295 q=-0.0 size=N/A time=00:02:00.62 bitrate=N/A speed=12.3x    frame= 3057 fps=297 q=-0.0 size=N/A time=00:02:07.50 bitrate=N/A speed=12.4x    frame= 3236 fps=299 q=-0.0 size=N/A time=00:02:14.96 bitrate=N/A speed=12.5x    frame= 3395 fps=300 q=-0.0 size=N/A time=00:02:21.59 bitrate=N/A speed=12.5x    frame= 3562 fps=300 q=-0.0 size=N/A time=00:02:28.56 bitrate=N/A speed=12.5x    frame= 3738 fps=302 q=-0.0 size=N/A time=00:02:35.90 bitrate=N/A speed=12.6x    frame= 3923 fps=304 q=-0.0 size=N/A time=00:02:43.62 bitrate=N/A speed=12.7x    frame= 4108 fps=307 q=-0.0 size=N/A time=00:02:51.33 bitrate=N/A speed=12.8x    frame= 4283 fps=308 q=-0.0 size=N/A time=00:02:58.63 bitrate=N/A speed=12.8x    frame= 4448 fps=308 q=-0.0 size=N/A time=00:03:05.51 bitrate=N/A speed=12.9x    frame= 4620 fps=309 q=-0.0 size=N/A time=00:03:12.69 bitrate=N/A speed=12.9x    frame= 4810 fps=311 q=-0.0 size=N/A time=00:03:20.61 bitrate=N/A speed=  13x    frame= 4993 fps=313 q=-0.0 size=N/A time=00:03:28.24 bitrate=N/A speed=  13x    frame= 5168 fps=313 q=-0.0 size=N/A time=00:03:35.54 bitrate=N/A speed=13.1x    frame= 5339 fps=314 q=-0.0 size=N/A time=00:03:42.68 bitrate=N/A speed=13.1x    frame= 5509 fps=314 q=-0.0 size=N/A time=00:03:49.77 bitrate=N/A speed=13.1x    frame= 5662 fps=314 q=-0.0 size=N/A time=00:03:56.15 bitrate=N/A speed=13.1x    frame= 5795 fps=312 q=-0.0 size=N/A time=00:04:01.69 bitrate=N/A speed=  13x    frame= 5944 fps=312 q=-0.0 size=N/A time=00:04:07.91 bitrate=N/A speed=  13x    frame= 6109 fps=312 q=-0.0 size=N/A time=00:04:14.79 bitrate=N/A speed=  13x    frame= 6282 fps=313 q=-0.0 size=N/A time=00:04:22.01 bitrate=N/A speed=  13x    frame= 6468 fps=314 q=-0.0 size=N/A time=00:04:29.76 bitrate=N/A speed=13.1x    frame= 6644 fps=314 q=-0.0 size=N/A time=00:04:37.11 bitrate=N/A speed=13.1x    frame= 6825 fps=315 q=-0.0 size=N/A time=00:04:44.65 bitrate=N/A speed=13.2x    frame= 7007 fps=316 q=-0.0 size=N/A time=00:04:52.25 bitrate=N/A speed=13.2x    frame= 7176 fps=316 q=-0.0 size=N/A time=00:04:59.29 bitrate=N/A speed=13.2x    frame= 7364 fps=317 q=-0.0 size=N/A time=00:05:07.14 bitrate=N/A speed=13.2x    frame= 7540 fps=318 q=-0.0 size=N/A time=00:05:14.48 bitrate=N/A speed=13.3x    frame= 7716 fps=319 q=-0.0 size=N/A time=00:05:21.82 bitrate=N/A speed=13.3x    frame= 7900 fps=319 q=-0.0 size=N/A time=00:05:29.49 bitrate=N/A speed=13.3x    frame= 8087 fps=320 q=-0.0 size=N/A time=00:05:37.29 bitrate=N/A speed=13.4x    frame= 8269 fps=321 q=-0.0 size=N/A time=00:05:44.88 bitrate=N/A speed=13.4x    frame= 8456 fps=322 q=-0.0 size=N/A time=00:05:52.68 bitrate=N/A speed=13.4x    frame= 8635 fps=322 q=-0.0 size=N/A time=00:06:00.15 bitrate=N/A speed=13.4x    frame= 8822 fps=323 q=-0.0 size=N/A time=00:06:07.95 bitrate=N/A speed=13.5x    frame= 9011 fps=324 q=-0.0 size=N/A time=00:06:15.83 bitrate=N/A speed=13.5x    frame= 9191 fps=324 q=-0.0 size=N/A time=00:06:23.34 bitrate=N/A speed=13.5x    frame= 9369 fps=325 q=-0.0 size=N/A time=00:06:30.76 bitrate=N/A speed=13.5x    frame= 9531 fps=324 q=-0.0 size=N/A time=00:06:37.52 bitrate=N/A speed=13.5x    frame= 9699 fps=324 q=-0.0 size=N/A time=00:06:44.52 bitrate=N/A speed=13.5x    frame= 9860 fps=324 q=-0.0 size=N/A time=00:06:51.24 bitrate=N/A speed=13.5x    frame=10019 fps=324 q=-0.0 size=N/A time=00:06:57.87 bitrate=N/A speed=13.5x    frame=10189 fps=324 q=-0.0 size=N/A time=00:07:04.96 bitrate=N/A speed=13.5x    frame=10368 fps=324 q=-0.0 size=N/A time=00:07:12.43 bitrate=N/A speed=13.5x    frame=10553 fps=325 q=-0.0 size=N/A time=00:07:20.14 bitrate=N/A speed=13.5x    frame=10731 fps=325 q=-0.0 size=N/A time=00:07:27.57 bitrate=N/A speed=13.6x    frame=10910 fps=326 q=-0.0 size=N/A time=00:07:35.03 bitrate=N/A speed=13.6x    frame=11094 fps=326 q=-0.0 size=N/A time=00:07:42.71 bitrate=N/A speed=13.6x    frame=11269 fps=326 q=-0.0 size=N/A time=00:07:50.01 bitrate=N/A speed=13.6x    frame=11463 fps=327 q=-0.0 size=N/A time=00:07:58.10 bitrate=N/A speed=13.6x    frame=11644 fps=327 q=-0.0 size=N/A time=00:08:05.65 bitrate=N/A speed=13.6x    frame=11824 fps=328 q=-0.0 size=N/A time=00:08:13.15 bitrate=N/A speed=13.7x    frame=12007 fps=328 q=-0.0 size=N/A time=00:08:20.79 bitrate=N/A speed=13.7x    frame=12171 fps=328 q=-0.0 size=N/A time=00:08:27.63 bitrate=N/A speed=13.7x    frame=12334 fps=328 q=-0.0 size=N/A time=00:08:34.43 bitrate=N/A speed=13.7x    frame=12383 fps=325 q=-0.0 size=N/A time=00:08:36.47 bitrate=N/A speed=13.5x    frame=12566 fps=325 q=-0.0 size=N/A time=00:08:44.10 bitrate=N/A speed=13.5x    frame=12740 fps=325 q=-0.0 size=N/A time=00:08:51.36 bitrate=N/A speed=13.6x    frame=12921 fps=325 q=-0.0 size=N/A time=00:08:58.91 bitrate=N/A speed=13.6x    frame=13081 fps=325 q=-0.0 size=N/A time=00:09:05.58 bitrate=N/A speed=13.6x    frame=13252 fps=325 q=-0.0 size=N/A time=00:09:12.71 bitrate=N/A speed=13.6x    frame=13418 fps=325 q=-0.0 size=N/A time=00:09:19.64 bitrate=N/A speed=13.6x    frame=13598 fps=325 q=-0.0 size=N/A time=00:09:27.14 bitrate=N/A speed=13.6x    frame=13787 fps=326 q=-0.0 size=N/A time=00:09:35.03 bitrate=N/A speed=13.6x    frame=13966 fps=326 q=-0.0 size=N/A time=00:09:42.49 bitrate=N/A speed=13.6x    frame=14138 fps=326 q=-0.0 size=N/A time=00:09:49.67 bitrate=N/A speed=13.6x    frame=14328 fps=327 q=-0.0 size=N/A time=00:09:57.59 bitrate=N/A speed=13.6x    frame=14513 fps=327 q=-0.0 size=N/A time=00:10:05.31 bitrate=N/A speed=13.6x    frame=14700 fps=327 q=-0.0 size=N/A time=00:10:13.11 bitrate=N/A speed=13.7x    frame=14884 fps=328 q=-0.0 size=N/A time=00:10:20.78 bitrate=N/A speed=13.7x    frame=15065 fps=328 q=-0.0 size=N/A time=00:10:28.33 bitrate=N/A speed=13.7x    frame=15222 fps=328 q=-0.0 size=N/A time=00:10:34.88 bitrate=N/A speed=13.7x    frame=15394 fps=328 q=-0.0 size=N/A time=00:10:42.05 bitrate=N/A speed=13.7x    frame=15566 fps=328 q=-0.0 size=N/A time=00:10:49.23 bitrate=N/A speed=13.7x    frame=15719 fps=328 q=-0.0 size=N/A time=00:10:55.61 bitrate=N/A speed=13.7x    frame=15882 fps=328 q=-0.0 size=N/A time=00:11:02.41 bitrate=N/A speed=13.7x    frame=16058 fps=328 q=-0.0 size=N/A time=00:11:09.75 bitrate=N/A speed=13.7x    frame=16238 fps=328 q=-0.0 size=N/A time=00:11:17.25 bitrate=N/A speed=13.7x    frame=16418 fps=328 q=-0.0 size=N/A time=00:11:24.76 bitrate=N/A speed=13.7x    frame=16589 fps=328 q=-0.0 size=N/A time=00:11:31.89 bitrate=N/A speed=13.7x    frame=16766 fps=328 q=-0.0 size=N/A time=00:11:39.28 bitrate=N/A speed=13.7x    frame=16948 fps=329 q=-0.0 size=N/A time=00:11:46.87 bitrate=N/A speed=13.7x    frame=17122 fps=329 q=-0.0 size=N/A time=00:11:54.13 bitrate=N/A speed=13.7x    frame=17312 fps=329 q=-0.0 size=N/A time=00:12:02.05 bitrate=N/A speed=13.7x    frame=17499 fps=329 q=-0.0 size=N/A time=00:12:09.85 bitrate=N/A speed=13.7x    frame=17682 fps=330 q=-0.0 size=N/A time=00:12:17.48 bitrate=N/A speed=13.7x    frame=17868 fps=330 q=-0.0 size=N/A time=00:12:25.24 bitrate=N/A speed=13.8x    frame=18051 fps=330 q=-0.0 size=N/A time=00:12:32.87 bitrate=N/A speed=13.8x    frame=18231 fps=330 q=-0.0 size=N/A time=00:12:40.38 bitrate=N/A speed=13.8x    frame=18406 fps=330 q=-0.0 size=N/A time=00:12:47.68 bitrate=N/A speed=13.8x    frame=18598 fps=331 q=-0.0 size=N/A time=00:12:55.69 bitrate=N/A speed=13.8x    frame=18782 fps=331 q=-0.0 size=N/A time=00:13:03.36 bitrate=N/A speed=13.8x    frame=18964 fps=331 q=-0.0 size=N/A time=00:13:10.95 bitrate=N/A speed=13.8x    frame=19127 fps=331 q=-0.0 size=N/A time=00:13:17.75 bitrate=N/A speed=13.8x    frame=19279 fps=331 q=-0.0 size=N/A time=00:13:24.09 bitrate=N/A speed=13.8x    frame=19460 fps=331 q=-0.0 size=N/A time=00:13:31.64 bitrate=N/A speed=13.8x    frame=19647 fps=331 q=-0.0 size=N/A time=00:13:39.44 bitrate=N/A speed=13.8x    frame=19826 fps=331 q=-0.0 size=N/A time=00:13:46.90 bitrate=N/A speed=13.8x    frame=20011 fps=332 q=-0.0 size=N/A time=00:13:54.62 bitrate=N/A speed=13.8x    frame=20198 fps=332 q=-0.0 size=N/A time=00:14:02.42 bitrate=N/A speed=13.8x    frame=20382 fps=332 q=-0.0 size=N/A time=00:14:10.09 bitrate=N/A speed=13.8x    frame=20556 fps=332 q=-0.0 size=N/A time=00:14:17.35 bitrate=N/A speed=13.9x    frame=20729 fps=332 q=-0.0 size=N/A time=00:14:24.57 bitrate=N/A speed=13.9x    frame=20921 fps=332 q=-0.0 size=N/A time=00:14:32.58 bitrate=N/A speed=13.9x    frame=21109 fps=333 q=-0.0 size=N/A time=00:14:40.42 bitrate=N/A speed=13.9x    frame=21292 fps=333 q=-0.0 size=N/A time=00:14:48.05 bitrate=N/A speed=13.9x    frame=21481 fps=333 q=-0.0 size=N/A time=00:14:55.93 bitrate=N/A speed=13.9x    frame=21671 fps=333 q=-0.0 size=N/A time=00:15:03.86 bitrate=N/A speed=13.9x    frame=21854 fps=334 q=-0.0 size=N/A time=00:15:11.49 bitrate=N/A speed=13.9x    frame=22040 fps=334 q=-0.0 size=N/A time=00:15:19.25 bitrate=N/A speed=13.9x    frame=22215 fps=334 q=-0.0 size=N/A time=00:15:26.55 bitrate=N/A speed=13.9x    frame=22382 fps=334 q=-0.0 size=N/A time=00:15:33.51 bitrate=N/A speed=13.9x    frame=22545 fps=334 q=-0.0 size=N/A time=00:15:40.31 bitrate=N/A speed=13.9x    frame=22723 fps=334 q=-0.0 size=N/A time=00:15:47.73 bitrate=N/A speed=13.9x    frame=22890 fps=334 q=-0.0 size=N/A time=00:15:54.70 bitrate=N/A speed=13.9x    frame=23073 fps=334 q=-0.0 size=N/A time=00:16:02.33 bitrate=N/A speed=13.9x    frame=23250 fps=334 q=-0.0 size=N/A time=00:16:09.71 bitrate=N/A speed=13.9x    frame=23428 fps=334 q=-0.0 size=N/A time=00:16:17.14 bitrate=N/A speed=13.9x    frame=23607 fps=334 q=-0.0 size=N/A time=00:16:24.60 bitrate=N/A speed=13.9x    frame=23790 fps=334 q=-0.0 size=N/A time=00:16:32.24 bitrate=N/A speed=13.9x    frame=23968 fps=334 q=-0.0 size=N/A time=00:16:39.66 bitrate=N/A speed=13.9x    frame=24149 fps=334 q=-0.0 size=N/A time=00:16:47.21 bitrate=N/A speed=13.9x    frame=24318 fps=334 q=-0.0 size=N/A time=00:16:54.26 bitrate=N/A speed=13.9x    frame=24490 fps=334 q=-0.0 size=N/A time=00:17:01.43 bitrate=N/A speed=13.9x    frame=24685 fps=335 q=-0.0 size=N/A time=00:17:09.57 bitrate=N/A speed=  14x    frame=24866 fps=335 q=-0.0 size=N/A time=00:17:17.11 bitrate=N/A speed=  14x    frame=25057 fps=335 q=-0.0 size=N/A time=00:17:25.08 bitrate=N/A speed=  14x    frame=25245 fps=335 q=-0.0 size=N/A time=00:17:32.92 bitrate=N/A speed=  14x    frame=25425 fps=335 q=-0.0 size=N/A time=00:17:40.43 bitrate=N/A speed=  14x    frame=25610 fps=336 q=-0.0 size=N/A time=00:17:48.15 bitrate=N/A speed=  14x    frame=25774 fps=335 q=-0.0 size=N/A time=00:17:54.99 bitrate=N/A speed=  14x    frame=25943 fps=335 q=-0.0 size=N/A time=00:18:02.03 bitrate=N/A speed=  14x    frame=26105 fps=335 q=-0.0 size=N/A time=00:18:08.79 bitrate=N/A speed=  14x    frame=26271 fps=335 q=-0.0 size=N/A time=00:18:15.71 bitrate=N/A speed=  14x    frame=26434 fps=335 q=-0.0 size=N/A time=00:18:22.51 bitrate=N/A speed=  14x    frame=26596 fps=335 q=-0.0 size=N/A time=00:18:29.27 bitrate=N/A speed=  14x    frame=26762 fps=335 q=-0.0 size=N/A time=00:18:36.19 bitrate=N/A speed=  14x    frame=26925 fps=335 q=-0.0 size=N/A time=00:18:42.99 bitrate=N/A speed=  14x    frame=27045 fps=334 q=-0.0 size=N/A time=00:18:48.00 bitrate=N/A speed=13.9x    frame=27145 fps=333 q=-0.0 size=N/A time=00:18:52.17 bitrate=N/A speed=13.9x    frame=27259 fps=332 q=-0.0 size=N/A time=00:18:56.92 bitrate=N/A speed=13.9x    frame=27396 fps=332 q=-0.0 size=N/A time=00:19:02.64 bitrate=N/A speed=13.8x    frame=27560 fps=332 q=-0.0 size=N/A time=00:19:09.48 bitrate=N/A speed=13.8x    frame=27729 fps=332 q=-0.0 size=N/A time=00:19:16.53 bitrate=N/A speed=13.8x    frame=27889 fps=332 q=-0.0 size=N/A time=00:19:23.20 bitrate=N/A speed=13.8x    frame=28059 fps=332 q=-0.0 size=N/A time=00:19:30.29 bitrate=N/A speed=13.8x    frame=28207 fps=331 q=-0.0 size=N/A time=00:19:36.46 bitrate=N/A speed=13.8x    frame=28364 fps=331 q=-0.0 size=N/A time=00:19:43.01 bitrate=N/A speed=13.8x    frame=28510 fps=331 q=-0.0 size=N/A time=00:19:49.10 bitrate=N/A speed=13.8x    frame=28656 fps=331 q=-0.0 size=N/A time=00:19:55.19 bitrate=N/A speed=13.8x    frame=28807 fps=330 q=-0.0 size=N/A time=00:20:01.49 bitrate=N/A speed=13.8x    frame=28949 fps=330 q=-0.0 size=N/A time=00:20:07.41 bitrate=N/A speed=13.8x    frame=29084 fps=330 q=-0.0 size=N/A time=00:20:13.04 bitrate=N/A speed=13.8x    frame=29204 fps=329 q=-0.0 size=N/A time=00:20:18.05 bitrate=N/A speed=13.7x    frame=29327 fps=329 q=-0.0 size=N/A time=00:20:23.18 bitrate=N/A speed=13.7x    frame=29446 fps=328 q=-0.0 size=N/A time=00:20:28.14 bitrate=N/A speed=13.7x    frame=29593 fps=328 q=-0.0 size=N/A time=00:20:34.27 bitrate=N/A speed=13.7x    frame=29744 fps=328 q=-0.0 size=N/A time=00:20:40.57 bitrate=N/A speed=13.7x    frame=29871 fps=327 q=-0.0 size=N/A time=00:20:45.86 bitrate=N/A speed=13.6x    frame=29986 fps=327 q=-0.0 size=N/A time=00:20:50.66 bitrate=N/A speed=13.6x    frame=30018 fps=323 q=-0.0 size=N/A time=00:20:52.00 bitrate=N/A speed=13.5x    frame=30109 fps=323 q=-0.0 size=N/A time=00:20:55.79 bitrate=N/A speed=13.5x    frame=30198 fps=322 q=-0.0 size=N/A time=00:20:59.50 bitrate=N/A speed=13.4x    frame=30355 fps=322 q=-0.0 size=N/A time=00:21:06.05 bitrate=N/A speed=13.4x    frame=30514 fps=321 q=-0.0 size=N/A time=00:21:12.68 bitrate=N/A speed=13.4x    frame=30660 fps=321 q=-0.0 size=N/A time=00:21:18.77 bitrate=N/A speed=13.4x    frame=30842 fps=321 q=-0.0 size=N/A time=00:21:26.36 bitrate=N/A speed=13.4x    frame=31022 fps=322 q=-0.0 size=N/A time=00:21:33.87 bitrate=N/A speed=13.4x    frame=31174 fps=321 q=-0.0 size=N/A time=00:21:40.21 bitrate=N/A speed=13.4x    frame=31334 fps=321 q=-0.0 size=N/A time=00:21:46.88 bitrate=N/A speed=13.4x    frame=31446 fps=321 q=-0.0 size=N/A time=00:21:51.56 bitrate=N/A speed=13.4x    frame=31590 fps=321 q=-0.0 size=N/A time=00:21:57.56 bitrate=N/A speed=13.4x    frame=31705 fps=320 q=-0.0 size=N/A time=00:22:02.36 bitrate=N/A speed=13.4x    frame=31830 fps=320 q=-0.0 size=N/A time=00:22:07.57 bitrate=N/A speed=13.3x    frame=31955 fps=319 q=-0.0 size=N/A time=00:22:12.78 bitrate=N/A speed=13.3x    frame=32077 fps=319 q=-0.0 size=N/A time=00:22:17.87 bitrate=N/A speed=13.3x    frame=32168 fps=318 q=-0.0 size=N/A time=00:22:21.67 bitrate=N/A speed=13.3x    frame=32272 fps=317 q=-0.0 size=N/A time=00:22:26.01 bitrate=N/A speed=13.2x    frame=32384 fps=317 q=-0.0 size=N/A time=00:22:30.68 bitrate=N/A speed=13.2x    frame=32495 fps=316 q=-0.0 size=N/A time=00:22:35.31 bitrate=N/A speed=13.2x    frame=32584 fps=316 q=-0.0 size=N/A time=00:22:39.02 bitrate=N/A speed=13.2x    frame=32689 fps=315 q=-0.0 size=N/A time=00:22:43.40 bitrate=N/A speed=13.1x    frame=32830 fps=315 q=-0.0 size=N/A time=00:22:49.28 bitrate=N/A speed=13.1x    frame=32991 fps=315 q=-0.0 size=N/A time=00:22:55.99 bitrate=N/A speed=13.1x    frame=33166 fps=315 q=-0.0 size=N/A time=00:23:03.29 bitrate=N/A speed=13.1x    frame=33324 fps=315 q=-0.0 size=N/A time=00:23:09.88 bitrate=N/A speed=13.1x    frame=33490 fps=315 q=-0.0 size=N/A time=00:23:16.81 bitrate=N/A speed=13.1x    frame=33636 fps=315 q=-0.0 size=N/A time=00:23:22.90 bitrate=N/A speed=13.1x    frame=33769 fps=315 q=-0.0 size=N/A time=00:23:28.44 bitrate=N/A speed=13.1x    frame=33886 fps=314 q=-0.0 size=N/A time=00:23:33.32 bitrate=N/A speed=13.1x    frame=34048 fps=314 q=-0.0 size=N/A time=00:23:40.08 bitrate=N/A speed=13.1x    frame=34208 fps=314 q=-0.0 size=N/A time=00:23:46.75 bitrate=N/A speed=13.1x    frame=34348 fps=314 q=-0.0 size=N/A time=00:23:52.59 bitrate=N/A speed=13.1x    frame=34488 fps=314 q=-0.0 size=N/A time=00:23:58.43 bitrate=N/A speed=13.1x    frame=34670 fps=314 q=-0.0 size=N/A time=00:24:06.02 bitrate=N/A speed=13.1x    [Parsed_ssim_16 @ 000001c645e9f700] SSIM Y:0.993901 (22.147418) U:0.993789 (22.068264) V:0.993376 (21.789118) All:0.993795 (22.072505)
[out#0/null @ 000001c63916dec0] video:14903KiB audio:271276KiB subtitle:0KiB other streams:0KiB global headers:0KiB muxing overhead: unknown
frame=34683 fps=314 q=-0.0 Lsize=N/A time=00:24:06.57 bitrate=N/A speed=13.1x    
